# xmcd CD database file
#
# Track frame offsets:
#	150
#	22792
#	46239
#	72081
#	99151
#	121240
#	144893
#	165199
#	188580
#	212699
#	229957
#	254271
#	280384
#	303065
#
# Disc length: 4283 seconds
#
# Revision: 0
# Processed by: cddbd v1.5.2PL0 Copyright (c) Steve Scherf et al.
# Submitted via: CDex 1.70beta2
#
DISCID=a810b90e
DTITLE=Various Artist - Sea Of Silence Vol. 6, CD 1
DYEAR=2007
DGENRE=New Age
TTITLE0=Stephane de Lucia - Resonance
TTITLE1=Rick de Mar - In The Night
TTITLE2=Maestro and Cabal - Monte Carlo Beach
TTITLE3=Esteban Garcia - Para Mi
TTITLE4=Alex Riviera - Magic
TTITLE5=Jimi Shaker - Tanger
TTITLE6=Elephant Castle - Marmor
TTITLE7=Unknown Lights - Sand Moon
TTITLE8=Nightwalker - Half Past Five
TTITLE9=Tibagoa - Seven To Eight
TTITLE10=Twen T4 - As I See
TTITLE11=Nepal Tigers - My Makimono
TTITLE12=Kelsinki - So Emotional
TTITLE13=Damiano C - Alone
EXTD=YEAR: 2007
EXTT0=
EXTT1=
EXTT2=
EXTT3=
EXTT4=
EXTT5=
EXTT6=
EXTT7=
EXTT8=
EXTT9=
EXTT10=
EXTT11=
EXTT12=
EXTT13=
PLAYORDER=
